<svg id="Capa_1" enable-background="new 0 0 512 512" height="512" viewBox="0 0 512 512" width="512" xmlns="http://www.w3.org/2000/svg"><g><g><g><path d="m172.285 233.023c-4.085-5.221-4.237-12.337-.647-17.661l145.383-215.362h179.242l-159.088 232.227c-2.796 4.08-7.425 6.52-12.373 6.52h-140.295c-4.721 0-9.313-2.006-12.222-5.724z" fill="#2b8ef5"/><path d="m426.4 0-164.038 238.747h-35.675l163.368-238.747z" fill="#1063e0"/></g><g><path d="m174.775 222.64-159.038-222.64h179.146l153.555 217.947-20.562 10.944h-140.728z" fill="#6fb3e8"/><path d="m288.178 238.747h-36.667l-160.67-238.747h36.453z" fill="#1063e0"/></g></g><g><g><g><path d="m256.024 499.775c-75.941 0-137.724-61.782-137.724-137.723s61.782-137.724 137.724-137.724 137.724 61.782 137.724 137.724-61.782 137.723-137.724 137.723z" fill="#ff9377"/><path d="m256.024 224.328v275.447c75.942 0 137.724-61.782 137.724-137.723s-61.782-137.724-137.724-137.724z" fill="#e4624c"/></g><g><path d="m256.024 512c-82.682 0-149.949-67.267-149.949-149.949s67.267-149.949 149.949-149.949c82.683 0 149.949 67.267 149.949 149.949.001 82.682-67.266 149.949-149.949 149.949zm0-269.897c-66.14 0-119.949 53.809-119.949 119.949s53.809 119.949 119.949 119.949c66.141 0 119.949-53.809 119.949-119.949.001-66.141-53.808-119.949-119.949-119.949z" fill="#e4624c"/><path d="m256.024 212.103v30c66.141 0 119.949 53.809 119.949 119.949s-53.809 119.949-119.949 119.949v30c82.683 0 149.949-67.267 149.949-149.949.001-82.683-67.266-149.949-149.949-149.949z" fill="#cb3b28"/></g><g><path d="m294.988 330.765c0-21.454-17.48-38.908-38.964-38.908-18.578 0-34.657 13.199-38.232 31.384-1.597 8.118 3.699 15.99 11.829 17.584 8.12 1.595 16.013-3.694 17.608-11.812.82-4.171 4.519-7.199 8.795-7.199 4.942 0 8.964 4.015 8.964 8.951s-4.022 8.951-8.964 8.951c-8.284 0-15 6.706-15 14.979 0 8.272 6.716 14.979 15 14.979 4.942 0 8.964 4.015 8.964 8.951s-4.022 8.951-8.964 8.951c-4.448 0-8.265-3.303-8.876-7.682-.059-.416-.088-.844-.088-1.269 0-8.272-6.716-14.979-15-14.979s-15 6.706-15 14.979c0 1.805.126 3.624.375 5.407 2.669 19.099 19.259 33.501 38.589 33.501 21.484 0 38.964-17.454 38.964-38.909 0-9.019-3.098-17.324-8.275-23.93 5.178-6.605 8.275-14.91 8.275-23.929z" fill="#e4624c"/><path d="m294.988 330.765c0-21.454-17.48-38.908-38.964-38.908v29.957c4.942 0 8.964 4.015 8.964 8.951s-4.022 8.951-8.964 8.951v29.957c4.942 0 8.964 4.015 8.964 8.951s-4.022 8.951-8.964 8.951v29.957c21.484 0 38.964-17.454 38.964-38.909 0-9.019-3.098-17.324-8.275-23.93 5.178-6.604 8.275-14.909 8.275-23.928z" fill="#cb3b28"/></g></g><g><path d="m345.554 242.294h-179.058c-8.284 0-15-6.716-15-15s6.716-15 15-15h179.058c8.284 0 15 6.716 15 15s-6.716 15-15 15z" fill="#cb3b28"/><path d="m345.554 212.294h-89.529v30h89.529c8.284 0 15-6.716 15-15s-6.716-15-15-15z" fill="#aa210f"/></g></g></g></svg>