<svg id="Capa_1" enable-background="new 0 0 512 512" height="512" viewBox="0 0 512 512" width="512" xmlns="http://www.w3.org/2000/svg"><g><g><g><path d="m172.285 233.023c-4.085-5.221-4.237-12.337-.647-17.661l145.383-215.362h179.242l-159.088 232.227c-2.796 4.08-7.425 6.52-12.373 6.52h-140.295c-4.721 0-9.313-2.006-12.222-5.724z" fill="#2b8ef5"/><path d="m426.4 0-164.039 238.747h-35.674l163.368-238.747z" fill="#1063e0"/></g><g><path d="m174.775 222.64-159.038-222.64h179.146l153.555 217.947-20.562 10.944h-140.728z" fill="#6fb3e8"/><path d="m288.178 238.747h-36.667l-160.67-238.747h36.453z" fill="#1063e0"/></g></g><g><g><g><path d="m256.024 499.775c-75.941 0-137.724-61.782-137.724-137.723s61.782-137.724 137.724-137.724 137.724 61.782 137.724 137.724-61.782 137.723-137.724 137.723z" fill="#fddb8d"/><path d="m256.024 224.328v275.447c75.942 0 137.724-61.782 137.724-137.723s-61.782-137.724-137.724-137.724z" fill="#fbac5b"/></g><g><path d="m256.024 512c-82.682 0-149.949-67.267-149.949-149.949s67.267-149.949 149.949-149.949c82.683 0 149.949 67.267 149.949 149.949.001 82.682-67.266 149.949-149.949 149.949zm0-269.897c-66.14 0-119.949 53.809-119.949 119.949s53.809 119.949 119.949 119.949c66.141 0 119.949-53.809 119.949-119.949.001-66.141-53.808-119.949-119.949-119.949z" fill="#fbac5b"/><path d="m256.024 212.103v30c66.141 0 119.949 53.809 119.949 119.949s-53.809 119.949-119.949 119.949v30c82.683 0 149.949-67.267 149.949-149.949.001-82.683-67.266-149.949-149.949-149.949z" fill="#fd8f32"/></g><g><path d="m256.033 423.877c-8.284 0-15-6.716-15-15v-78.652h-5.018c-8.284 0-15-6.716-15-15s6.716-15 15-15h20.018c8.284 0 15 6.716 15 15v93.652c0 8.284-6.716 15-15 15z" fill="#fbac5b"/><path d="m256.033 300.225h-.009v123.651h.009c8.284 0 15-6.716 15-15v-93.652c0-8.283-6.716-14.999-15-14.999z" fill="#fd8f32"/></g></g><g><path d="m345.554 242.294h-179.058c-8.284 0-15-6.716-15-15s6.716-15 15-15h179.058c8.284 0 15 6.716 15 15s-6.716 15-15 15z" fill="#fef1ac"/><path d="m345.554 212.294h-89.529v30h89.529c8.284 0 15-6.716 15-15s-6.716-15-15-15z" fill="#fee17f"/></g></g></g></svg>