<svg class="profile-svg-change" width="130" height="130" viewBox="0 0 130 130" fill="none" xmlns="http://www.w3.org/2000/svg">
    <circle cx="65" cy="65" r="65" fill="#EFEFEF"/>
    <path fill-rule="evenodd" clip-rule="evenodd"
          d="M81 47H49C47.8954 47 47 47.8954 47 49V70.2667L59.6547 67.3139C60.5486 67.1053 61.4635 67 62.3814 67H67.6186C68.5365 67 69.4514 67.1053 70.3453 67.3139L83 70.2667V49C83 47.8954 82.1046 47 81 47ZM49 45C46.7909 45 45 46.7909 45 49V81C45 83.2091 46.7909 85 49 85H81C83.2091 85 85 83.2091 85 81V49C85 46.7909 83.2091 45 81 45H49ZM55.9091 59.5455C57.9174 59.5455 59.5455 57.9174 59.5455 55.9091C59.5455 53.9008 57.9174 52.2727 55.9091 52.2727C53.9008 52.2727 52.2728 53.9008 52.2728 55.9091C52.2728 57.9174 53.9008 59.5455 55.9091 59.5455Z" fill="#CDCDCD"/>
    <circle opacity="0.5" cx="65" cy="65" r="65" fill="black"/>
    <path d="M41.5518 53.5455H34.2577V63H35.6796V54.7642H40.1299V63H41.5518V53.5455ZM46.6091 63.1431C48.608 63.1431 49.9145 61.6797 49.9145 59.4869C49.9145 57.2802 48.608 55.8168 46.6091 55.8168C44.6102 55.8168 43.3037 57.2802 43.3037 59.4869C43.3037 61.6797 44.6102 63.1431 46.6091 63.1431ZM46.6137 61.9844C45.3073 61.9844 44.6979 60.8441 44.6979 59.4822C44.6979 58.125 45.3073 56.9709 46.6137 56.9709C47.911 56.9709 48.5203 58.125 48.5203 59.4822C48.5203 60.8441 47.911 61.9844 46.6137 61.9844ZM55.4347 61.2919L53.1911 55.9091H51.4553V63H52.8079V57.8434L54.9222 63H55.9471L58.0984 57.8619V63H59.4418V55.9091H57.7244L55.4347 61.2919ZM64.3375 63.1431C65.8841 63.1431 66.9782 62.3814 67.2921 61.2273L65.9856 60.9918C65.7363 61.6612 65.1362 62.0028 64.3514 62.0028C63.1696 62.0028 62.3755 61.2365 62.3386 59.87H67.3798V59.3807C67.3798 56.8185 65.8471 55.8168 64.2406 55.8168C62.2647 55.8168 60.9629 57.3217 60.9629 59.5007C60.9629 61.7028 62.2463 63.1431 64.3375 63.1431ZM62.3432 58.8359C62.3986 57.8295 63.128 56.957 64.2498 56.957C65.3208 56.957 66.0225 57.7511 66.0272 58.8359H62.3432ZM70.2639 55.9091H68.9113V63H70.2639V60.0547H73.3339V63H74.6819V55.9091H73.3339V58.859H70.2639V55.9091ZM80.7572 63H82.0544V55.9091H79.0583C77.4241 55.9091 76.4269 56.7539 76.4269 58.0881C76.4269 59.0206 76.9163 59.7085 77.7611 60.027L76.1038 63H77.5164L79.0629 60.2255H80.7572V63ZM80.7572 59.1083H78.966C78.2135 59.1083 77.7749 58.7113 77.7796 58.1065C77.7749 57.4972 78.2504 57.0863 79.0583 57.0863H80.7572V59.1083ZM83.0123 57.1001H85.3344V63H86.6824V57.1001H88.9953V55.9091H83.0123V57.1001ZM91.8079 58.3466V55.9091H90.4553V63H93.5529C95.2887 63 96.2582 61.9936 96.2582 60.6594C96.2582 59.2976 95.2887 58.3466 93.5529 58.3466H91.8079ZM91.8079 59.5376H93.5529C94.3469 59.5376 94.9148 60.0178 94.9148 60.701C94.9148 61.3473 94.3469 61.8089 93.5529 61.8089H91.8079V59.5376ZM46.0794 77.157C47.252 77.157 47.9121 76.5614 48.1752 76.0305H48.2306V77H49.5787V72.2912C49.5787 70.2276 47.9537 69.8168 46.8272 69.8168C45.5439 69.8168 44.362 70.3338 43.9004 71.6264L45.1976 71.9219C45.4007 71.4187 45.9178 70.9339 46.8457 70.9339C47.7367 70.9339 48.1937 71.4002 48.1937 72.2035V72.2358C48.1937 72.739 47.6767 72.7298 46.4025 72.8775C45.0591 73.0344 43.6834 73.3853 43.6834 74.9964C43.6834 76.3906 44.7314 77.157 46.0794 77.157ZM46.3794 76.049C45.5993 76.049 45.036 75.6982 45.036 75.0149C45.036 74.2763 45.6916 74.0131 46.4902 73.907C46.938 73.8469 47.9998 73.7269 48.1983 73.5284V74.4425C48.1983 75.2827 47.5289 76.049 46.3794 76.049ZM51.4172 77H54.8057C56.3568 77 57.2662 76.2152 57.2662 75.0888C57.2662 74.0362 56.4584 73.3899 55.512 73.2791C56.3845 73.1129 56.9616 72.6328 56.9616 71.8018C56.9616 70.6385 55.9552 69.9091 54.3579 69.9091H51.4172V77ZM52.7144 75.8459V73.8746H54.8057C55.4889 73.8746 55.8998 74.2763 55.8998 74.9364C55.8998 75.4996 55.4889 75.8459 54.8057 75.8459H52.7144ZM52.7144 72.8636V71.0771H54.3579C55.1427 71.0771 55.6182 71.4048 55.6182 71.9496C55.6182 72.5174 55.1473 72.8636 54.3717 72.8636H52.7144ZM60.844 77.157C62.0166 77.157 62.6768 76.5614 62.9399 76.0305H62.9953V77H64.3433V72.2912C64.3433 70.2276 62.7183 69.8168 61.5919 69.8168C60.3085 69.8168 59.1267 70.3338 58.665 71.6264L59.9623 71.9219C60.1654 71.4187 60.6824 70.9339 61.6104 70.9339C62.5013 70.9339 62.9584 71.4002 62.9584 72.2035V72.2358C62.9584 72.739 62.4413 72.7298 61.1672 72.8775C59.8238 73.0344 58.4481 73.3853 58.4481 74.9964C58.4481 76.3906 59.496 77.157 60.844 77.157ZM61.1441 76.049C60.3639 76.049 59.8007 75.6982 59.8007 75.0149C59.8007 74.2763 60.4562 74.0131 61.2549 73.907C61.7027 73.8469 62.7645 73.7269 62.963 73.5284V74.4425C62.963 75.2827 62.2936 76.049 61.1441 76.049ZM65.3024 71.1001H67.6245V77H68.9725V71.1001H71.2853V69.9091H65.3024V71.1001ZM74.4788 77.157C75.6514 77.157 76.3115 76.5614 76.5747 76.0305H76.6301V77H77.9781V72.2912C77.9781 70.2276 76.3531 69.8168 75.2267 69.8168C73.9433 69.8168 72.7615 70.3338 72.2998 71.6264L73.597 71.9219C73.8002 71.4187 74.3172 70.9339 75.2451 70.9339C76.1361 70.9339 76.5931 71.4002 76.5931 72.2035V72.2358C76.5931 72.739 76.0761 72.7298 74.8019 72.8775C73.4585 73.0344 72.0828 73.3853 72.0828 74.9964C72.0828 76.3906 73.1308 77.157 74.4788 77.157ZM74.7789 76.049C73.9987 76.049 73.4355 75.6982 73.4355 75.0149C73.4355 74.2763 74.091 74.0131 74.8896 73.907C75.3374 73.8469 76.3992 73.7269 76.5977 73.5284V74.4425C76.5977 75.2827 75.9284 76.049 74.7789 76.049ZM79.8166 79.6591H81.1969V75.8967H81.28C81.5293 76.3491 82.0371 77.1385 83.3297 77.1385C85.0471 77.1385 86.2935 75.7628 86.2935 73.4684C86.2935 71.1694 85.0286 69.8168 83.3159 69.8168C82.0002 69.8168 81.5247 70.62 81.28 71.0586H81.1646V69.9091H79.8166V79.6591ZM81.1692 73.4545C81.1692 71.9727 81.8155 70.9893 83.0204 70.9893C84.2715 70.9893 84.8993 72.0465 84.8993 73.4545C84.8993 74.8764 84.253 75.9613 83.0204 75.9613C81.834 75.9613 81.1692 74.9457 81.1692 73.4545Z" fill="white"/>
</svg>
