<svg id="Capa_1" enable-background="new 0 0 512 512" height="512" viewBox="0 0 512 512" width="512" xmlns="http://www.w3.org/2000/svg"><g><g><g><path d="m172.285 233.023c-4.085-5.221-4.237-12.337-.647-17.661l145.383-215.362h179.242l-159.088 232.227c-2.796 4.08-7.425 6.52-12.373 6.52h-140.295c-4.721 0-9.313-2.006-12.222-5.724z" fill="#2b8ef5"/><path d="m426.4 0-164.038 238.747h-35.675l163.368-238.747z" fill="#1063e0"/></g><g><path d="m174.775 222.64-159.038-222.64h179.146l153.555 217.947-20.562 10.944h-140.728z" fill="#6fb3e8"/><path d="m288.178 238.747h-36.667l-160.67-238.747h36.453z" fill="#1063e0"/></g></g><g><g><g><path d="m256.024 499.775c-75.941 0-137.724-61.782-137.724-137.723s61.782-137.724 137.724-137.724 137.724 61.782 137.724 137.724-61.782 137.723-137.724 137.723z" fill="#e0e4f8"/><path d="m256.024 224.328v275.447c75.942 0 137.724-61.782 137.724-137.723s-61.782-137.724-137.724-137.724z" fill="#c4caf3"/></g><g><path d="m256.024 512c-82.682 0-149.949-67.267-149.949-149.949s67.267-149.949 149.949-149.949c82.683 0 149.949 67.267 149.949 149.949.001 82.682-67.266 149.949-149.949 149.949zm0-269.897c-66.14 0-119.949 53.809-119.949 119.949s53.809 119.949 119.949 119.949c66.141 0 119.949-53.809 119.949-119.949.001-66.141-53.808-119.949-119.949-119.949z" fill="#c4caf3"/><path d="m256.024 212.103v30c66.141 0 119.949 53.809 119.949 119.949s-53.809 119.949-119.949 119.949v30c82.683 0 149.949-67.267 149.949-149.949.001-82.683-67.266-149.949-149.949-149.949z" fill="#a8b1ec"/></g><g><path d="m251.477 417.29c-18.721 0-20.216-.499-22.195-1.158-4.793-1.598-8.525-5.391-9.987-10.147-2.474-8.042 1.471-13.206 7.441-21.023 4.736-6.202 13.553-17.746 28.334-38.865 4.747-6.783 6.691-11.544 7.476-14.487l.203-1.592c-.37-4.605-4.236-8.237-8.935-8.237-4.275 0-7.975 3.032-8.795 7.21-1.598 8.129-9.481 13.424-17.61 11.828-8.129-1.597-13.424-9.481-11.827-17.61 3.577-18.21 19.656-31.428 38.232-31.428 21.484 0 38.964 17.479 38.964 38.963 0 .636-.04 1.271-.121 1.901l-.463 3.623c-.064.499-.152.995-.267 1.485-1.839 7.936-5.97 16.531-12.279 25.545-6.912 9.877-12.558 17.717-17.115 23.929 6.15-.037 12.729-.098 19.026-.177.063-.001.129-.001.192-.001 8.197 0 14.892 6.592 14.995 14.811.103 8.284-6.527 15.083-14.811 15.188-13.408.167-23.22.242-30.458.242z" fill="#c4caf3"/><path d="m281.752 387.048c-.063 0-.129 0-.192.001-6.297.079-12.876.141-19.026.177 4.558-6.212 10.203-14.052 17.115-23.929 6.31-9.015 10.44-17.609 12.279-25.545.114-.49.203-.986.267-1.485l.463-3.623c.081-.63.121-1.265.121-1.901 0-20.743-16.295-37.747-36.755-38.897v30.219c3.65.93 6.416 4.095 6.726 7.952l-.203 1.592c-.729 2.737-2.465 7.049-6.523 13.095v72.577c6.665-.024 15.123-.099 25.913-.234 8.283-.104 14.914-6.904 14.811-15.188-.105-8.219-6.799-14.811-14.996-14.811z" fill="#a8b1ec"/></g></g><g><path d="m345.554 242.294h-179.058c-8.284 0-15-6.716-15-15s6.716-15 15-15h179.058c8.284 0 15 6.716 15 15s-6.716 15-15 15z" fill="#a8b1ec"/><path d="m345.554 212.294h-89.529v30h89.529c8.284 0 15-6.716 15-15s-6.716-15-15-15z" fill="#98a4e8"/></g></g></g></svg>